HIERARCHY
ROOT Hips
{
  OFFSET 56.2943 94.0457 37.4059
  CHANNELS 6 Xposition Yposition Zposition Zrotation Xrotation Yrotation
  JOINT spine
  {
    OFFSET 0 7.80059 0.448573
    CHANNELS 3 Zrotation Xrotation Yrotation
    JOINT spine1
    {
      OFFSET 0 10.1364 0
      CHANNELS 3 Zrotation Xrotation Yrotation
      JOINT spine2
      {
        OFFSET 0 9.71251 0
        CHANNELS 3 Zrotation Xrotation Yrotation
        JOINT Neck
        {
          OFFSET 0 24.9361 1.18887
          CHANNELS 3 Zrotation Xrotation Yrotation
          JOINT Head
          {
            OFFSET 0 7.53384 0
            CHANNELS 3 Zrotation Xrotation Yrotation
            End Site
            {
              OFFSET 0 18.2361 -6.01402
            }
          }
        }
        JOINT RightShoulder
        {
          OFFSET -4.08965 10.4888 -0.569457
          CHANNELS 3 Zrotation Xrotation Yrotation
          JOINT RightArm
          {
            OFFSET 0 13.757 0
            CHANNELS 3 Zrotation Xrotation Yrotation
            JOINT RightArmRoll
            {
              OFFSET 0 6.94478 0
              CHANNELS 3 Zrotation Xrotation Yrotation
              JOINT RightForeArm
              {
                OFFSET 0 20.2277 0
                CHANNELS 3 Zrotation Xrotation Yrotation
                JOINT RightForeArmRoll
                {
                  OFFSET 0 7.79312 0
                  CHANNELS 3 Zrotation Xrotation Yrotation
                  JOINT RightHand
                  {
                    OFFSET 0 15.6391 0
                    CHANNELS 3 Zrotation Xrotation Yrotation
                    End Site
                    {
                      OFFSET 0 0 0
                    }
                  }
                }
              }
            }
          }
        }
        JOINT LeftShoulder
        {
          OFFSET 4.08965 10.4888 -0.569457
          CHANNELS 3 Zrotation Xrotation Yrotation
          JOINT LeftArm
          {
            OFFSET 0 13.757 0
            CHANNELS 3 Zrotation Xrotation Yrotation
            JOINT LeftArmRoll
            {
              OFFSET 0 6.94478 0
              CHANNELS 3 Zrotation Xrotation Yrotation
              JOINT LeftForeArm
              {
                OFFSET 0 20.2277 0
                CHANNELS 3 Zrotation Xrotation Yrotation
                JOINT LeftForeArmRoll
                {
                  OFFSET 0 7.79313 0
                  CHANNELS 3 Zrotation Xrotation Yrotation
                  JOINT LeftHand
                  {
                    OFFSET 0 15.6391 0
                    CHANNELS 3 Zrotation Xrotation Yrotation
                    End Site
                    {
                      OFFSET 0 0 0
                    }
                  }
                }
              }
            }
          }
        }
      }
    }
  }
  JOINT RightUpLeg
  {
    OFFSET -6.91415 -1.26788 -1.06358
    CHANNELS 3 Zrotation Xrotation Yrotation
    JOINT RightUpLegRoll
    {
      OFFSET 0 18.3378 0
      CHANNELS 3 Zrotation Xrotation Yrotation
      JOINT RightLeg
      {
        OFFSET 0 -22.7085 0
        CHANNELS 3 Zrotation Xrotation Yrotation
        JOINT RightLegRoll
        {
          OFFSET 0 22.7828 0
          CHANNELS 3 Zrotation Xrotation Yrotation
          JOINT RightFoot
          {
            OFFSET 0 18.9629 0
            CHANNELS 3 Zrotation Xrotation Yrotation
            JOINT RightToeBase
            {
              OFFSET 0 15.852 0
              CHANNELS 3 Zrotation Xrotation Yrotation
              End Site
              {
                OFFSET 0.00671906 7.677 -0.884893
              }
            }
          }
        }
      }
    }
  }
  JOINT LeftUpLeg
  {
    OFFSET 6.91415 -1.26788 -1.06358
    CHANNELS 3 Zrotation Xrotation Yrotation
    JOINT LeftUpLegRoll
    {
      OFFSET 0 18.3379 0
      CHANNELS 3 Zrotation Xrotation Yrotation
      JOINT LeftLeg
      {
        OFFSET 0 22.7084 0
        CHANNELS 3 Zrotation Xrotation Yrotation
        JOINT LeftLegRoll
        {
          OFFSET 0 22.9934 0
          CHANNELS 3 Zrotation Xrotation Yrotation
          JOINT LeftFoot
          {
            OFFSET 0 18.7522 0
            CHANNELS 3 Zrotation Xrotation Yrotation
            JOINT LeftToeBase
            {
              OFFSET 0 15.852 0
              CHANNELS 3 Zrotation Xrotation Yrotation
              End Site
              {
                OFFSET -0.030112 7.677 -0.884893
              }
            }
          }
        }
      }
    }
  }
}
MOTION
Frames: 5
Frame Time: 0.00208333
51.8976 52.6974 2.9346 6.53824 -31.498 15.5999 0.172904 5.00385 -1.58995 0.493492 14.0039 -3.25343 0.548429 15.6478 -3.27599 -27.3773 5.83299 0.10613 26.2788 -0.702622 -2.78808 55.9755 -4.0025 -2.25882 135.039 30.1395 -43.6864 -6.33436e-006 1.8162e-005 5.49206e-006 25.3972 41.9369 -10.2664 4.31701e-006 -2.36568e-006 -2.99999 8.0292 -4.95099 0.697405 -74.6037 -1.87477 2.664 -101.296 21.6284 11.879 -6.05806e-006 -1.7335e-006 -3.31987e-006 -13.8344 67.414 14.1614 1.45301e-005 1.01513e-005 2.99998 -8.02967 -4.95142 -0.697668 172.302 55.9274 3.68474 180 -1.52575e-005 179.25 -28.1742 73.1456 32.782 8.88845e-007 -1.61839e-006 1.35315 -18.9964 78.121 30.3118 8.13844 25.2619 -3.4536 -154.69 56.241 -54.5091 4.5067e-006 -1.99009e-005 -1.70016 168.08 -69.5126 168.85 7.77421e-007 -2.57607e-006 -2.46035 13.7881 59.0071 -14.2122 -10.2558 36.554 9.56763 
51.8863 52.7075 2.92822 6.53871 -31.5021 15.6042 0.17371 5.00617 -1.5904 0.494582 14.0079 -3.2536 0.548644 15.6518 -3.27595 -27.3579 5.84201 0.105523 26.2569 -0.707702 -2.78786 55.9814 -4.00689 -2.26215 135.031 30.1369 -43.6885 -6.33436e-006 1.8162e-005 5.49206e-006 25.3944 41.9513 -10.2695 4.31701e-006 -2.36568e-006 -2.99999 8.0292 -4.95099 0.697405 -74.5883 -1.87475 2.66262 -101.315 21.6239 11.8895 -6.05806e-006 -1.7335e-006 -3.31987e-006 -13.8357 67.4167 14.1627 1.45301e-005 1.01513e-005 2.99998 -8.02967 -4.95142 -0.697668 172.301 55.9229 3.68718 180 -1.52575e-005 179.25 -28.1773 73.1465 32.7851 8.88845e-007 -1.61839e-006 1.35336 -18.9957 78.1197 30.3099 8.13844 25.2619 -3.4536 -154.714 56.2454 -54.4771 4.5067e-006 -1.99009e-005 -1.70105 168.065 -69.5147 168.828 7.77421e-007 -2.57607e-006 -2.46038 13.7905 59.0131 -14.2147 -10.2639 36.5751 9.5847 
51.8934 52.7058 2.93107 6.53946 -31.5067 15.6086 0.174548 5.0086 -1.59091 0.495656 14.0121 -3.25383 0.548813 15.656 -3.27595 -27.3392 5.85097 0.104936 26.2355 -0.713025 -2.78768 55.986 -4.01133 -2.2654 135.024 30.1344 -43.6907 -6.33436e-006 1.8162e-005 5.49206e-006 25.3914 41.9649 -10.2723 4.31701e-006 -2.36568e-006 -2.99999 8.0292 -4.95099 0.697405 -74.573 -1.87457 2.66117 -101.333 21.6194 11.8995 -6.05806e-006 -1.7335e-006 -3.31987e-006 -13.8366 67.4199 14.1639 1.45301e-005 1.01513e-005 2.99998 -8.02967 -4.95142 -0.697668 172.3 55.9179 3.68967 180 -1.52575e-005 179.249 -28.1805 73.1475 32.7884 8.88845e-007 -1.61839e-006 1.35351 -18.9949 78.1185 30.3079 8.13844 25.2619 -3.4536 -154.738 56.2489 -54.4459 4.5067e-006 -1.99009e-005 -1.70189 168.051 -69.5169 168.808 7.77421e-007 -2.57607e-006 -2.46042 13.7927 59.0188 -14.2172 -10.2715 36.5949 9.60072 
51.8872 52.7118 2.92581 6.54039 -31.5115 15.6131 0.175409 5.01109 -1.59146 0.49672 14.0164 -3.25409 0.54895 15.6603 -3.27598 -27.3211 5.85989 0.104365 26.2144 -0.718517 -2.78751 55.9897 -4.0158 -2.26862 135.019 30.1319 -43.6931 -6.33436e-006 1.8162e-005 5.49206e-006 25.3884 41.9778 -10.275 4.31701e-006 -2.36568e-006 -2.99999 8.0292 -4.95099 0.697405 -74.5576 -1.87428 2.65968 -101.351 21.6148 11.909 -6.05806e-006 -1.7335e-006 -3.31987e-006 -13.8373 67.4236 14.165 1.45301e-005 1.01513e-005 2.99998 -8.02967 -4.95142 -0.697668 172.298 55.9125 3.69219 180 -1.52575e-005 179.249 -28.1839 73.1486 32.7918 8.88845e-007 -1.61839e-006 1.35362 -18.994 78.1174 30.3059 8.13844 25.2619 -3.4536 -154.761 56.2519 -54.4153 4.5067e-006 -1.99009e-005 -1.70269 168.037 -69.5191 168.788 7.77421e-007 -2.57607e-006 -2.46047 13.7948 59.0242 -14.2195 -10.2788 36.6138 9.61602 
51.8783 52.7069 2.9253 6.54144 -31.5164 15.6176 0.176282 5.01362 -1.59203 0.497777 14.0207 -3.25437 0.549068 15.6647 -3.27603 -27.3034 5.8688 0.103802 26.1936 -0.724106 -2.78735 55.9929 -4.02029 -2.2718 135.014 30.1294 -43.6956 -6.33436e-006 1.8162e-005 5.49206e-006 25.3853 41.9905 -10.2776 4.31701e-006 -2.36568e-006 -2.99999 8.0292 -4.95099 0.697405 -74.5422 -1.87394 2.65816 -101.368 21.6101 11.9183 -6.05806e-006 -1.7335e-006 -3.31987e-006 -13.8379 67.4274 14.1661 1.45301e-005 1.01513e-005 2.99998 -8.02967 -4.95142 -0.697668 172.296 55.9069 3.69472 180 -1.52575e-005 179.249 -28.1874 73.1496 32.7953 8.88845e-007 -1.61839e-006 1.35371 -18.993 78.1162 30.304 8.13844 25.2619 -3.4536 -154.784 56.2546 -54.385 4.5067e-006 -1.99009e-005 -1.70347 168.024 -69.5214 168.769 7.77421e-007 -2.57607e-006 -2.46052 13.7968 59.0295 -14.2218 -10.2859 36.6322 9.6309 
